<?xml version="1.0" encoding="UTF-8"?>
<svg width="30px" height="28px" viewBox="0 0 30 28" version="1.1" xmlns="http://www.w3.org/2000/svg" xmlns:xlink="http://www.w3.org/1999/xlink">
    <!-- Generator: Sketch 55.1 (78136) - https://sketchapp.com -->
    <title>聊天-置灰</title>
    <desc>Created with Sketch.</desc>
    <g id="页面1" stroke="none" stroke-width="1" fill="none" fill-rule="evenodd">
        <g id="聊天-置灰" fill-rule="nonzero">
            <path d="M29.0666667,19.1413333 L29.0666667,2.52088887 C29.0666667,1.13244444 27.9591111,0.00711109375 26.5955556,0.00533334375 L2.50666666,0.00533334375 C1.85066666,0.00533334375 1.22133331,0.268444469 0.755555563,0.741333344 C0.290256699,1.21676969 0.0298538817,1.85565011 0.0301986617,2.52088887 L0.0301986617,19.1431111 C0.0243081017,20.5188585 1.13271915,21.6399916 2.50844444,21.6497778 L5.13066666,21.6497778 L5.13066666,28.0053333 L11.3706667,21.6497778 L26.5937778,21.6497778 C27.9573333,21.6497778 29.0613333,20.528 29.0666667,19.1431111 L29.0666667,19.1413333 Z" id="路径" fill="#A2A7AD"></path>
            <path d="M7.08444444,10.7911111 C7.08444444,9.94666669 7.75644444,9.26222222 8.58666666,9.26222222 C9.41511109,9.26222222 10.0871111,9.94666666 10.0871111,10.7911111 C10.0871111,11.6337778 9.41511112,12.3182222 8.58666666,12.3182222 C8.18463705,12.3149369 7.80040742,12.1519509 7.51863204,11.8651736 C7.23685665,11.5783962 7.08065596,11.1913585 7.08444444,10.7893333 L7.08444444,10.7911111 Z M13.0453333,10.7911111 C13.0453333,9.94666669 13.7191111,9.26222222 14.5475556,9.26222222 C15.376,9.26222222 16.048,9.94666666 16.048,10.7911111 C16.048,11.6337778 15.376,12.3182222 14.5475556,12.3182222 C14.145526,12.3149369 13.7612963,12.1519509 13.4795209,11.8651736 C13.1977456,11.5783962 13.0415449,11.1913585 13.0453333,10.7893333 L13.0453333,10.7911111 Z M19.0097778,10.7911111 C19.0097778,9.94666669 19.6817778,9.26222222 20.5102222,9.26222222 C21.3386667,9.26222222 22.0124444,9.94666666 22.0124444,10.7911111 C22.0124444,11.6337778 21.3386667,12.3182222 20.5102222,12.3182222 C20.108502,12.3144679 19.7247287,12.1512755 19.443337,11.8645494 C19.1619453,11.5778232 19.0059881,11.1910532 19.0097778,10.7893333 L19.0097778,10.7911111 Z" id="形状" fill="#FFFFFF"></path>
        </g>
    </g>
</svg>