<?xml version="1.0" encoding="UTF-8"?>
<svg width="26px" height="26px" viewBox="0 0 26 26" version="1.1" xmlns="http://www.w3.org/2000/svg" xmlns:xlink="http://www.w3.org/1999/xlink">
    <!-- Generator: Sketch 55.1 (78136) - https://sketchapp.com -->
    <title>下载</title>
    <desc>Created with Sketch.</desc>
    <g id="页面1" stroke="none" stroke-width="1" fill="none" fill-rule="evenodd">
        <g id="下载" transform="translate(13.000000, 13.000000) scale(-1, 1) translate(-13.000000, -13.000000) " fill="#737987" fill-rule="nonzero">
            <g id="chat" transform="translate(13.000000, 13.000000) scale(-1, 1) translate(-13.000000, -13.000000) ">
                <path d="M13.006089,0.0220407018 C20.1803841,0.0220407018 25.9962005,5.83105497 25.9962005,12.9969591 C25.9962005,20.1628632 20.1803841,25.9718774 13.006089,25.9718774 L1.57475972,25.9718774 C1.16134497,25.9718774 0.764862623,25.8078411 0.472534254,25.5158547 C0.180205885,25.2238682 0.0159775176,24.8278496 0.0159775176,24.4149184 L0.0159775176,12.9969591 C0.0159775176,5.83105497 5.83179391,0.0220407018 13.006089,0.0220407018 Z M5.86141077,14.9431579 L5.86141077,17.5378302 L13.6553218,17.5378302 L13.6553218,14.9431579 L5.86141077,14.9431579 Z M5.86141077,9.75303485 L5.86141077,12.3484856 L18.8515222,12.3484856 L18.8515222,9.75303485 L5.86141077,9.75303485 Z" id="Shape"></path>
            </g>
        </g>
    </g>
</svg>