<?xml version="1.0" encoding="UTF-8"?>
<svg width="26px" height="26px" viewBox="0 0 26 26" version="1.1" xmlns="http://www.w3.org/2000/svg" xmlns:xlink="http://www.w3.org/1999/xlink">
    <!-- Generator: Sketch 55.1 (78136) - https://sketchapp.com -->
    <title>导出 </title>
    <desc>Created with Sketch.</desc>
    <g id="页面1" stroke="none" stroke-width="1" fill="none" fill-rule="evenodd">
        <g id="导出-" fill="#737987" fill-rule="nonzero">
            <path d="M12,16.9410962 L12,1.05877974 C12,0.476469493 12.4500176,0 13,0 C13.5499824,0 14,0.476469493 14,1.05877974 L14,16.9410962 C14,17.5235305 13.5499824,18 13,18 C12.4500176,18 12,17.5235305 12,16.9410962" id="路径"></path>
            <path d="M5.3288098,7.07829741 L12.0782479,0.328627573 C12.5188597,-0.109542524 13.2306631,-0.109542524 13.6712748,0.328627573 C14.1095751,0.766938397 14.1095751,1.48450074 13.6712748,1.92170259 L6.92178388,8.67137243 C6.48117212,9.10954252 5.76936876,9.10954252 5.32875699,8.67137243 C4.89041434,8.23080005 4.89041434,7.51886979 5.32875699,7.07829741" id="路径"></path>
            <path d="M13.76309,0.315533987 L20.2533399,6.80587904 C20.6746869,7.22960743 20.6746869,7.91409106 20.2533399,8.33781945 C19.8318809,8.75941156 19.1418399,8.75941156 18.7215489,8.33781945 L12.231299,1.84782987 C11.8099668,1.42414493 11.8099668,0.739701355 12.231299,0.316016416 C12.6549807,-0.105338805 13.3394337,-0.105338805 13.7631154,0.316016416 M22.75,26 L3.25000032,26 C1.45820933,26 0,24.5417697 0,22.7499524 L0,16.2498572 C0,15.9624741 0.113820642,15.6867935 0.317028303,15.4835829 C0.520235963,15.2803723 0.795912433,15.1663143 1.08329137,15.1665498 C1.37069229,15.1662805 1.6464014,15.2803236 1.84963654,15.4835379 C2.05287167,15.6867522 2.16694541,15.962452 2.16670932,16.2498572 L2.16670932,22.7499524 C2.16670932,23.3479612 2.65200033,23.8332593 3.25000032,23.8332593 L22.75,23.8332593 C23.348,23.8332593 23.833291,23.3479612 23.833291,22.7499524 L23.833291,16.2498572 C23.833291,15.6508074 24.317668,15.1665498 24.916709,15.1665498 C25.51575,15.1665498 26,15.6508074 26,16.2498572 L26,22.7499524 C26,24.5417697 24.541791,26 22.75,26" id="形状"></path>
        </g>
    </g>
</svg>