<?xml version="1.0" standalone="no"?><!DOCTYPE svg PUBLIC "-//W3C//DTD SVG 1.1//EN" "http://www.w3.org/Graphics/SVG/1.1/DTD/svg11.dtd"><svg t="1568284307374" class="icon" viewBox="0 0 1024 1024" version="1.1" xmlns="http://www.w3.org/2000/svg" p-id="9317" xmlns:xlink="http://www.w3.org/1999/xlink" width="32" height="32"><defs><style type="text/css"></style></defs><path d="M896 96H128a32 32 0 0 0-32 32v768a32 32 0 0 0 32 32h768a32 32 0 0 0 32-32V128a32 32 0 0 0-32-32zM160 864V160h704v704z" fill="#737987" p-id="9318"></path><path d="M400 256h-64v228.64a112 112 0 0 0 0 214.72V768h64v-68.64a112 112 0 0 0 0-214.72V256z m-32 384a48 48 0 1 1 48-48 48 48 0 0 1-48 48zM688 256h-64v68.64a112 112 0 0 0 0 214.72V768h64V539.36a112 112 0 0 0 0-214.72V256z m-32 224a48 48 0 1 1 48-48 48 48 0 0 1-48 48z" fill="#737987" p-id="9319"></path></svg>